<svg width="14" height="14" viewBox="0 0 14 14" fill="none" xmlns="http://www.w3.org/2000/svg">
<g id="icon/action/lock_24px">
<path id="icon/action/lock_24px_2" fill-rule="evenodd" clip-rule="evenodd" d="M9.91665 4.95833H10.5C11.1416 4.95833 11.6666 5.48333 11.6666 6.125V11.9583C11.6666 12.6 11.1416 13.125 10.5 13.125H3.49998C2.85831 13.125 2.33331 12.6 2.33331 11.9583V6.125C2.33331 5.48333 2.85831 4.95833 3.49998 4.95833H4.08331V3.79167C4.08331 2.18167 5.38998 0.875 6.99998 0.875C8.60998 0.875 9.91665 2.18167 9.91665 3.79167V4.95833ZM6.99998 2.04167C6.03165 2.04167 5.24998 2.82333 5.24998 3.79167V4.95833H8.74998V3.79167C8.74998 2.82333 7.96831 2.04167 6.99998 2.04167ZM3.49998 11.9583V6.125H10.5V11.9583H3.49998ZM8.16665 9.04167C8.16665 9.68333 7.64165 10.2083 6.99998 10.2083C6.35831 10.2083 5.83331 9.68333 5.83331 9.04167C5.83331 8.4 6.35831 7.875 6.99998 7.875C7.64165 7.875 8.16665 8.4 8.16665 9.04167Z" fill="#8692A6"/>
</g>
</svg>
